<?xml version="1.0" encoding="UTF-8"?>
<svg id="Layer_2" data-name="Layer 2" xmlns="http://www.w3.org/2000/svg" viewBox="0 0 673.08 254.47">
  <defs>
    <style>
      .cls-1 {
        fill: #eae7e1;
      }

      .cls-2 {
        fill: #cfbfac;
      }
    </style>
  </defs>
  <g id="Layer_1-2" data-name="Layer 1">
    <g>
      <path class="cls-1" d="M672.11,78.53c-8.61.36-19.84,2.24-30.22,9.15-23.18,15.43-25.47,44.89-36.9,44.51-5.89-.2-6.2-8.04-14.91-15.11-18.51-15.02-39.88,1.85-57-6.85-29.54-15.01-8.68-87-32.9-96.33-10.21-3.93-23.29,5.24-38.06,15.59-24.17,16.94-21.36,29.02-41.27,38-16.41,7.4-22.77,1.21-39.44,11.04-15.2,8.97-16.73,18.14-24,17.41-14.69-1.47-14-39.47-33.55-44.36-6.87-1.72-8.34,2.62-31.95,6.96-9.29,1.71-16.4,3.01-24.43,3.05-28.99.14-38.73-16.35-51.16-10.01-11.25,5.73-7.05,21.15-20.15,26.93-9.64,4.26-15.02-2.72-24.34,1.7-12.74,6.05-9.11,22.17-18.8,26.33-14.01,6.01-28.58-24.66-51.36-22.47-19.2,1.85-22.46,24.94-40.36,24.34-15.59-.53-20.88-18.31-37.15-17.92-9.97.24-17.97,7.15-23.2,13.01C.63,68.99.32,34.49,0,0h673.08c-.32,26.18-.65,52.35-.97,78.53Z"/>
      <g>
        <path class="cls-1" d="M59.86,101.45c-2.54,1.38-3.69-1.73-2.95,3.28,3.74,25.38,24.17,36.41,7.94,64.54-.31.54.17,1.54-.21,1.94-.66.68-2.42-.27-2.76-.46-.52-.29-2.88-1.7-3.93-6.12-1.73-7.26.45-20.89.78-27.53.94-18.74-10.32-32.47-17.11-36.98-1.13-.75-4.67-3.11-7.04-1.84-2.89,1.54-1.28,6.99-3.68,8.17-2.93,1.44-7.1-5.8-14.91-8.47-5.61-1.92-11.14-.81-15.04.49v-6.98c25.21-10.49,38.31,3.42,58.91,9.97Z"/>
        <path class="cls-2" d="M.95,98.45c18.21-5.33,16.99-10.58,29.91,4.77.48.57-.21,2.89.04,3.21-17.63-2.82-23.46,6.91-29.96,20.95v-28.92Z"/>
        <path class="cls-1" d="M296.51,52.57c15.82-18.82,25.56-13.51,39.17,4.26,2.16,2.82,8.65,16.23,9.43,16.79,3.2,2.27,13.57-4.65,15.3-3.09,1.2,1.08-13.38,20.52-4.51,19.92,2.84-.19,24-19.19,29.21-21.65,9.86-4.67,44.85-8.96,49.17-12.77,2.26-1.99,10.27-27.71,13.84-34.05,12.65-22.41,33.95-29.76,55.56-12.28,20.21,16.35,14.69,52.19,18.76,75.02,2.05,11.47,5.79,13.41,16.67,16.26,5.62,1.47,26.07,2.05,28,6.44.08.18-1.95,1.72-.5,3.96,3.96,6.16,12.4,12.51,16.9,19.06,16.49,23.96,13.09,31.51,16.64,58.18,2.82,21.2,13.77,32.72-11.07,48.46-.62-.03-1.91-.18-3.19-1.05-1.73-1.17-2.76-3.2-2.69-4.71.15-3.38,5.81-5.32,8.05-6.65,15.72-9.32,2.84-71.32-6.51-71.27-.91,0-1.77.53-2.14.89-3.3,3.26,3.21,14.02-2.51,15.95-.56-12.7-3.15-25.14-7.99-36.9-7.01-16.99-15.38-25.23-35.44-23.7-31.14,2.38-18.06,58.68-38.45,74.56-1.11-.45-2.89-1.36-3.73-3.15-2.36-5.03,4.67-12.87,6.27-14.78,14.2-16.99,15.49-66.1,13.49-101.31-.25-4.37-3.11-47.31-12.49-43.33-2.76,1.17,1.54,27.14.44,32.31-.07.33-3.23,6.04-4.98,4.58,1.35-3.06.36-4.97-1-7.97,4.53-4.74-.61-7.55-.91-8.78-3.36-14.22-3.81-47.37-25.8-36.34-40.63,20.36-28.85,149.73-27.14,187.2,1,21.94,7.98,44.22-9.06,61.39-3.77-.75-8.65-2.39-11.08-6.49-3.61-6.1.65-13.5,4.55-27.61,0,0,2.04-7.39,4.72-25.02,3.06-20.14,1.08-36.52-.05-45.36-3.44-26.95-12.46-46.45-12.57-46.42-.1.03,8.77,16.08,11.92,40.16,3.21,24.48,1.82,67.15-5.5,84.58-.88,2.08-4.32,9.72-1.22,13.45.85,1.02,2.3,1.89,3.73,1.73,3.73-.43,5.82-7.73,6.46-10.5,4.1-17.75,1.68-81.14-.1-101.57-.43-4.9-4.31-35.05-5.38-37.51-.54-1.25-5.88-6.34-7.46-5.01-1.31,1.1.48,9.4-.16,11.28-1.99,5.89-7.74-8.98-9.83-11.28-3.31-32.46-44.35-7.24-53.94,7.46-13.29,20.38-6.53,46.76-11.24,67.56-1.71,7.57-7.76,10.07-7.71,17.74-2.17-1.78-4.54-4.38-4.99-7.83-.56-4.25,2.06-7.8,2.78-8.84,7.31-10.54,11.24-42.54,8.12-68.53-.7-5.84-5.32-21.52-9.89-25.51-3.06,5.68.85,8.05.59,14.64-.15,3.85-2.5,6.69-2.67,9.82-.21,3.78,4.43,13.54-.92,16.43-.43-8.7.21-19.69-1.27-28.16-.4-2.26-6.73-18.8-7.72-19.71,4.1.85-2.21-12.28-2.62-12.85-7.41-10.34-15.85-.66-23.35,1.88-10.22,12.16-17.35,26.67-18.95,42.41-1.23,12.1,4.05,28.12-3.58,40.3-.59.94-4.23,6.75-6.43,6.06-1.59-.51-1.91-4.28-2.14-7-.37-4.29.18-7.42.18-7.42,2.5-14.25,6.79-38.7-3.39-56.79-1.5-2.67-1.5-1.97-3.63-5.6-6.67-11.37-9.04-22.29-9.99-29.92,24.22,2.74,21.68,23.36,27.66,24.8,4.35,1.05,7.92-7.65,11.99-7.69,3.32-.03-1.15,4.03,8.28.83Z"/>
        <path class="cls-2" d="M669.96,67.53c.04.5,1.94,2.16,2.04,4.44.39,9.12-.36,18.36-.05,27.48-8.29-9.4-6.19-20.51-21.64-12.16-21.21,11.46-35.53,79.5-34.23,102.39,1.09,19.32,9.35,31.86,1.85,40.8-6.42,7.65-19.03,7.76-28.83,6.6,5.16-2.93,12.11-8.01,15.05-16.29,2.99-8.43-1.4-12.8-3.98-32.18-3.55-26.67-.16-34.22-16.64-58.18-4.5-6.54-12.94-12.9-16.9-19.06-1.44-2.24.58-3.78.5-3.96,8.25-2.86,15.16,1.2,22.97,1,8.95,3.89,5,35.44,16.54,29,9.31-5.19,13.99-45.12,23.4-58.92,1.45-2.13.67-3.07,3.99-4.99,7.81-1.05,6.97,4.22,8.12,4.86,3.04,1.7,22.12-11.77,27.83-10.85Z"/>
        <path class="cls-2" d="M433.31,254.05c17.04-17.18,10.06-39.45,9.06-61.39-1.71-37.47-13.49-166.84,27.14-187.2,22-11.02,22.44,22.12,25.8,36.34.29,1.23,5.43,4.04.91,8.78-9.78-21.47-29.88-18.89-37.2,1.24-7.98,21.94-11.05,112.04-9.7,137.87,1.07,20.57,19.02,69.84-16,64.36Z"/>
        <path class="cls-2" d="M248.58,34.62c2.14,10.43,6.58,19.98,9.99,29.92-3.77-2.16-9.96-5.07-18.03-6.11-9.96-1.27-20.08.66-24.35,3.14-26.84,15.57,26.56,139.75,3.36,152.87-2.96,1.67-8.33,2.21-18.9-4.28,1.68-4.89,8.3-12.3,9.7-16.74,4.07-12.84-.74-71.99-1.73-89.47-.47-8.19-4.51-16.12-4.01-25,.52-9.38,7.58-18.16,9.02-27.38,12.86-11.88,14.13-19.31,34.95-16.96Z"/>
        <path class="cls-2" d="M178.69,75.51c1.52,3.7,6.01,1.95,9,6.46,1.7,2.56,1.17,5.96,1.98,7.5-34.66-14.23-26.21,24.13-27.92,43.42-1.56,17.54-6,41.39-29.99,35.37-.5-3.14,1.78-9.19,3.25-11.73.29-.5,2.63-.25,3.2-1.24,11.38-19.51,4.94-40.03,6.53-61.84,4.13-2.52,5.39-7.22,13.98-10.97,1.72-.75,7.2-.72,6.99-3.99.31-.08.68.07,1,0,2.4-.54,7.72.29,6.99-2.99,1.58-.15,3.52.27,4.99,0Z"/>
        <path class="cls-2" d="M67.85,103.44c3.8-2.21,5.66-4.5,5.66-4.5,4.39-5.4,12.64-15.55,20.88-16.45,4.99-.54,10.71,2.22,10.93,4.85.35,4.21-13.68,4.89-24.31,17.18-4.76,5.5-6.78,10.95-7.29,12.39-3.24,9.19-4.79,25.43,3.01,36.64,1.59,2.28,4.36,5.49,4.17,9.96-.02.4-.28,4.99-3.82,7.85-3.86,3.12-10.12,2.99-15.19-.63,1.72-7.52,1.95-13.57,1.89-17.44-.22-13.88-4.79-42.49-6.86-48.57-.17-.49-.91-2.27,0-2.93.42-.31,1.44.47,2.96-.35,1.29.41,2.67.7,3.99,1-.13.61-.24,1.61.28,2.04.33.27,1.11.48,3.72-1.04Z"/>
        <path class="cls-1" d="M67.85,103.44c15.22-9.99,17.18-27.07,38.96-22.46,12.3,2.6,23.67,21.17,37.92,12.49-1.59,21.81,4.85,42.33-6.53,61.84-.58.99-2.92.74-3.2,1.24-1.46,2.53-3.74,8.58-3.25,11.73-1.68-.52-4.27-1.6-5.46-3.97-3.1-6.19,7.16-13.58,11.62-26.6.54-1.57,6.33-19.34-3.06-34.22-5.97-9.46-18.85-18.98-31.18-15.8-5.1,1.32-8.7,4.44-10.86,6.78,1.03-4.26,7.87-17.82-3.02-9.22-8.48,6.7-8.56,19.58-21.94,18.19Z"/>
        <path class="cls-2" d="M498.21,184.23c20.39-15.88,7.31-72.19,38.45-74.56,20.06-1.53,28.43,6.71,35.44,23.7-10.81-15.57-33.33-24.7-42-1.56-5.48,14.63-1.54,66.5-31.89,52.43Z"/>
        <path class="cls-2" d="M296.51,52.57c7.49-2.54,15.93-12.21,23.35-1.88.41.57,6.72,13.7,2.62,12.85-19.55-17.92-31.85,17.22-33.69,30.7-1.82,13.35,8.02,59.06-21.23,47.1-.78-5.03,3.97-1.64,6.43-6.06,4.97-8.94,2.55-30.17,3.58-40.3,1.6-15.75,8.73-30.26,18.95-42.41Z"/>
        <path class="cls-2" d="M411.34,88.48c-1.12-1.24-11.72-9.09-13.05-9.4-8.87-2.04-5.25,2.15-5.93,2.41-3.53,1.37-2.57-2.47-3.98-1.98-.29.1.58,2.64-.49,2.96-.85.25-3.28-1.6-7.25,1.29-11.66,8.47-21.06,28.55-23.09,45.26-2.13,17.46,7.66,49.65-14.12,52.22h-2c-.96-.05-2.13.17-3,0-.05-7.66,6-10.17,7.71-17.74,4.71-20.81-2.05-47.19,11.24-67.56,9.59-14.7,50.63-39.91,53.94-7.46Z"/>
        <path class="cls-1" d="M213.63,51.58c-1.44,9.22-8.5,18-9.02,27.38-.49,8.88,3.55,16.81,4.01,25,2.24,39.39,4.33,74.74,1.73,89.47-1.52,8.64-3.32,15.49-4.43,19.39-3.54-1.4-8.01-3.81-8.92-7.81-1.08-4.78,3.46-9.46,5.11-11.34,13.81-15.85,8.83-48.37,6.42-64.13-3.18-20.77-10.82-37.32-11.88-37.05-.65.17.86,6.87-.41,7.28-.73.24-2.32-1.67-5.59-8.29h.5l.5-.5-.5-.5-.5,1c-.32-.64-.67-1.37-1-1.99-.81-1.54-.28-4.95-1.98-7.5-3-4.52-7.49-2.76-9-6.46,18.86-3.47,21.75-11.75,34.95-23.94Z"/>
        <path class="cls-1" d="M630.01,78.51c-9.41,13.8-14.09,53.72-23.4,58.92-11.55,6.44-7.59-25.11-16.54-29,9.61-.25,6.35-2.04,12.97-6.98-.34,3.52.72,25.64,6.48,23.93,4.06-1.21,7.18-46.05,20.49-46.87Z"/>
        <path class="cls-1" d="M634.01,73.52c6.44-3.72,11.24-.36,18.55-2.92,3.53-1.24,16.3-12.15,17.88-12.06,4.13.24-.67,6.62-.49,9-5.71-.92-24.79,12.54-27.83,10.85-1.14-.64-.3-5.92-8.12-4.86Z"/>
        <path class="cls-1" d="M165.71,78.51c.21,3.27-5.27,3.24-6.99,3.99-.41-3.22,4.64-3.42,6.99-3.99Z"/>
        <path class="cls-1" d="M173.69,75.51c.73,3.28-4.59,2.45-6.99,2.99-1.02-2.62,4.58-2.76,6.99-2.99Z"/>
        <path class="cls-1" d="M65.85,103.44c-1.63,1.78-2.34,1.3-2-1,1.2.27,1.89.98,2,1Z"/>
        <path class="cls-1" d="M343.44,181.24c-1.53.18-.94.06-2,0h2Z"/>
        <polygon class="cls-1" points="332.96 113.42 333.46 113.91 332.96 114.41 332.96 113.42"/>
        <polygon class="cls-2" points="190.67 91.47 191.17 90.47 191.67 90.97 191.17 91.47 190.67 91.47"/>
      </g>
    </g>
  </g>
</svg>