<?xml version="1.0" encoding="UTF-8"?>
<svg id="Layer_2" data-name="Layer 2" xmlns="http://www.w3.org/2000/svg" viewBox="0 0 69.94 20.48">
  <defs>
    <style>
      .cls-1 {
        fill: #231f20;
      }
    </style>
  </defs>
  <g id="Layer_1-2" data-name="Layer 1">
    <g>
      <path class="cls-1" d="M29.12.05c-.02,6.81-.04,13.62-.05,20.43h-7.55c-.68-.01-2.07-.12-3.54-.96-1.18-.68-1.9-1.55-2.27-2.07C10.95,10.39,7.3,5.17,5.81,3.15c-.32-.43-.96-1.28-2.08-1.97C1.88.03,0,.17,0,.12,0,.02,6.02-.05,29.12.05Z"/>
      <rect class="cls-1" x="29.12" y=".05" width="11.7" height="20.43"/>
      <path class="cls-1" d="M69.94.12c0,.05-1.88-.09-3.73,1.06-1.12.69-1.76,1.54-2.08,1.97-1.49,2.02-5.14,7.24-9.9,14.3-.38.52-1.09,1.39-2.27,2.07-1.47.84-2.87.95-3.54.96h-7.55c-.02-6.81-.03-13.62-.05-20.43,23.09-.1,29.12-.03,29.12.07Z"/>
    </g>
  </g>
</svg>