<?xml version="1.0" encoding="UTF-8"?>
<svg id="Layer_2" data-name="Layer 2" xmlns="http://www.w3.org/2000/svg" viewBox="0 0 58.25 20.45">
  <defs>
    <style>
      .cls-1 {
        fill: #231f20;
      }
    </style>
  </defs>
  <g id="Layer_1-2" data-name="Layer 1">
    <path class="cls-1" d="M36.71,20.45h-15.19c-2.32,0-4.48-1.13-5.81-3.03-3.3-4.77-6.6-9.53-9.9-14.3-.37-.52-1.02-1.31-2.07-1.97C1.88,0,0,.12,0,.08,0-.05,29.29,0,58.25.08c-.68,0-2.16.11-3.68,1.04-1.09.66-1.76,1.48-2.13,2-4.69,7.04-8.36,12.24-9.92,14.3-.39.52-1.17,1.52-2.53,2.23-1.29.67-2.53.79-3.28.8Z"/>
  </g>
</svg>