<?xml version="1.0" encoding="UTF-8"?>
<svg id="Layer_2" data-name="Layer 2" xmlns="http://www.w3.org/2000/svg" viewBox="0 0 292.13 164.32">
  <defs>
    <style>
      .cls-1 {
        fill: #fbb040;
      }
    </style>
  </defs>
  <g id="Layer_1-2" data-name="Layer 1">
    <path class="cls-1" d="M292.13,164.32H0V8.95c0-.17.03-1.18.87-1.92.69-.62,1.49-.65,1.71-.65h8.99c.23-.01,1.07-.09,1.77-.78.59-.57.75-1.24.79-1.49v-1.54c0-.17.02-1.09.77-1.83C15.63.02,16.52,0,16.7,0c12.92,0,25.84,0,38.75,0,.19.01,1.03.09,1.7.79.69.72.71,1.58.71,1.77v1.24c0,.17.02,1.09.76,1.82.73.72,1.62.74,1.8.74h229.17c.17,0,1.09.02,1.82.77.7.72.72,1.59.72,1.77v155.41Z"/>
  </g>
</svg>